# Blender v2.79 (sub 0) OBJ File: 'articulation_pince.blend'
# www.blender.org
mtllib articulation_pince.mtl
o Cube.005_Cube.001
v -1.007457 -0.187868 -0.062738
v -1.007457 -0.146749 -0.062738
v -1.007457 -0.187868 -0.595268
v -1.007457 -0.146749 -0.595268
v -0.996513 -0.187868 -0.062738
v -0.996513 -0.146749 -0.062738
v -0.996513 -0.187868 -0.595268
v -0.996513 -0.146749 -0.595268
vn -1.0000 0.0000 0.0000
vn 0.0000 0.0000 -1.0000
vn 1.0000 0.0000 0.0000
vn 0.0000 0.0000 1.0000
vn 0.0000 -1.0000 0.0000
vn 0.0000 1.0000 0.0000
usemtl None
s off
f 1//1 2//1 4//1 3//1
f 3//2 4//2 8//2 7//2
f 7//3 8//3 6//3 5//3
f 5//4 6//4 2//4 1//4
f 3//5 7//5 5//5 1//5
f 8//6 4//6 2//6 6//6
o Cube.004_Cube.001
v -1.002060 -0.060591 -0.145912
v -1.002060 -0.019471 -0.145912
v -1.002060 -0.060591 -0.678442
v -1.002060 -0.019471 -0.678442
v -0.991116 -0.060591 -0.145912
v -0.991116 -0.019471 -0.145912
v -0.991116 -0.060591 -0.678442
v -0.991116 -0.019471 -0.678442
vn -1.0000 0.0000 0.0000
vn 0.0000 0.0000 -1.0000
vn 1.0000 0.0000 0.0000
vn 0.0000 0.0000 1.0000
vn 0.0000 -1.0000 0.0000
vn 0.0000 1.0000 0.0000
usemtl None
s off
f 9//7 10//7 12//7 11//7
f 11//8 12//8 16//8 15//8
f 15//9 16//9 14//9 13//9
f 13//10 14//10 10//10 9//10
f 11//11 15//11 13//11 9//11
f 16//12 12//12 10//12 14//12
o Cube.003_Cube.001
v -1.409970 -0.060591 -0.145912
v -1.409970 -0.019471 -0.145912
v -1.409970 -0.060591 -0.678442
v -1.409970 -0.019471 -0.678442
v -1.399026 -0.060591 -0.145912
v -1.399026 -0.019471 -0.145912
v -1.399026 -0.060591 -0.678442
v -1.399026 -0.019471 -0.678442
vn -1.0000 0.0000 0.0000
vn 0.0000 0.0000 -1.0000
vn 1.0000 0.0000 0.0000
vn 0.0000 0.0000 1.0000
vn 0.0000 -1.0000 0.0000
vn 0.0000 1.0000 0.0000
usemtl None
s off
f 17//13 18//13 20//13 19//13
f 19//14 20//14 24//14 23//14
f 23//15 24//15 22//15 21//15
f 21//16 22//16 18//16 17//16
f 19//17 23//17 21//17 17//17
f 24//18 20//18 18//18 22//18
o Cube.002_Cube.001
v -1.412455 -0.187868 -0.062738
v -1.412455 -0.146749 -0.062738
v -1.412455 -0.187868 -0.595268
v -1.412455 -0.146749 -0.595268
v -1.401511 -0.187868 -0.062738
v -1.401511 -0.146749 -0.062738
v -1.401511 -0.187868 -0.595268
v -1.401511 -0.146749 -0.595268
vn -1.0000 0.0000 0.0000
vn 0.0000 0.0000 -1.0000
vn 1.0000 0.0000 0.0000
vn 0.0000 0.0000 1.0000
vn 0.0000 -1.0000 0.0000
vn 0.0000 1.0000 0.0000
usemtl None
s off
f 25//19 26//19 28//19 27//19
f 27//20 28//20 32//20 31//20
f 31//21 32//21 30//21 29//21
f 29//22 30//22 26//22 25//22
f 27//23 31//23 29//23 25//23
f 32//24 28//24 26//24 30//24
o Cube.001
v -1.409970 -0.060591 -0.145912
v -1.409970 -0.019471 -0.145912
v -1.409970 -0.060591 -0.678442
v -1.409970 -0.019471 -0.678442
v -1.399026 -0.060591 -0.145912
v -1.399026 -0.019471 -0.145912
v -1.399026 -0.060591 -0.678442
v -1.399026 -0.019471 -0.678442
vn -1.0000 0.0000 0.0000
vn 0.0000 0.0000 -1.0000
vn 1.0000 0.0000 0.0000
vn 0.0000 0.0000 1.0000
vn 0.0000 -1.0000 0.0000
vn 0.0000 1.0000 0.0000
usemtl None
s off
f 33//25 34//25 36//25 35//25
f 35//26 36//26 40//26 39//26
f 39//27 40//27 38//27 37//27
f 37//28 38//28 34//28 33//28
f 35//29 39//29 37//29 33//29
f 40//30 36//30 34//30 38//30
o Cube
v -1.003443 -0.199032 -0.933471
v -1.003443 -0.199032 -0.535406
v -1.401508 -0.199032 -0.535406
v -1.401508 -0.199032 -0.933471
v -1.003443 0.010827 -0.933471
v -1.003443 0.010827 -0.535406
v -1.401508 0.010827 -0.535406
v -1.401508 0.010827 -0.933471
v -1.003443 -0.199032 -0.933471
v -1.401508 -0.199032 -0.933471
v -1.003443 0.010827 -0.933471
v -1.401508 0.010827 -0.933471
v -0.966221 -0.218655 -1.028558
v -1.438729 -0.218655 -1.028558
v -0.966221 0.030450 -1.028558
v -1.438729 0.030450 -1.028558
v -0.996874 -0.202495 -1.120848
v -1.408076 -0.202495 -1.120848
v -0.996874 0.014290 -1.120848
v -1.408076 0.014290 -1.120848
v -1.031159 -0.184420 -1.207544
v -1.373791 -0.184420 -1.207544
v -1.031159 -0.003785 -1.207544
v -1.373791 -0.003785 -1.207544
v -1.068307 -0.164836 -1.288648
v -1.336643 -0.164836 -1.288648
v -1.068307 -0.023369 -1.288648
v -1.336643 -0.023369 -1.288648
vn 0.0000 -1.0000 0.0000
vn 0.0000 1.0000 0.0000
vn 1.0000 0.0000 0.0000
vn -0.0000 -0.0000 1.0000
vn -1.0000 -0.0000 -0.0000
vn -0.0000 0.9794 0.2021
vn -0.9490 -0.0000 -0.3152
vn 0.9312 -0.0000 0.3645
vn -0.9312 -0.0000 0.3645
vn -0.0000 -0.9794 0.2021
vn 0.0000 0.9790 -0.2041
vn 0.0000 -0.9850 -0.1725
vn 0.0000 0.9850 -0.1725
vn 0.9490 -0.0000 -0.3152
vn 0.9092 0.0000 -0.4164
vn 0.9299 -0.0000 -0.3677
vn -0.9299 -0.0000 -0.3677
vn 0.0000 -0.9790 -0.2041
vn 0.0000 0.0000 -1.0000
vn -0.9092 0.0000 -0.4164
vn 0.0000 -0.9721 -0.2347
vn 0.0000 0.9721 -0.2347
usemtl Material
s off
f 41//31 42//31 43//31 44//31
f 45//32 48//32 47//32 46//32
f 41//33 45//33 46//33 42//33
f 42//34 46//34 47//34 43//34
f 43//35 47//35 48//35 44//35
f 45//34 41//34 49//34 51//34
f 52//36 51//36 55//36 56//36
f 48//34 45//34 51//34 52//34
f 44//34 48//34 52//34 50//34
f 41//34 44//34 50//34 49//34
f 54//37 56//37 60//37 58//37
f 51//38 49//38 53//38 55//38
f 50//39 52//39 56//39 54//39
f 49//40 50//40 54//40 53//40
f 60//41 59//41 63//41 64//41
f 53//42 54//42 58//42 57//42
f 56//43 55//43 59//43 60//43
f 55//44 53//44 57//44 59//44
f 63//45 61//45 65//45 67//45
f 59//46 57//46 61//46 63//46
f 58//47 60//47 64//47 62//47
f 57//48 58//48 62//48 61//48
f 67//49 65//49 66//49 68//49
f 62//50 64//50 68//50 66//50
f 61//51 62//51 66//51 65//51
f 64//52 63//52 67//52 68//52
