# Blender v2.79 (sub 0) OBJ File: 'BaseRobot.blend'
# www.blender.org
mtllib BaseRobot.mtl
o Cube
v 1.603247 0.294923 0.125669
v 1.603247 0.294923 1.121386
v -0.530812 0.294923 1.121386
v -0.530812 0.294923 0.125668
v 1.603247 0.743968 0.125669
v 1.603247 0.743968 1.121386
v -0.530813 0.743968 1.121386
v -0.530812 0.743968 0.125669
v -0.530812 0.294923 0.348747
v 1.603247 0.294923 0.348747
v -0.530812 0.743968 0.125669
v -0.530813 0.743968 1.121386
v 1.603247 0.743968 0.348747
v -0.530812 0.743968 0.348747
v -0.530812 0.743968 0.348747
v 1.603247 0.294923 0.841304
v 1.603247 0.743968 0.841304
v -0.530812 0.743968 0.841304
v -0.530812 0.743968 0.841304
v -0.530812 0.294923 0.841304
v 1.269192 0.743968 0.125669
v 1.269192 0.743968 1.121386
v 1.269192 0.743968 0.348747
v 1.269192 0.743968 0.841304
v -0.287568 0.294923 0.125668
v -0.287569 0.294923 1.121386
v -0.287569 0.743968 0.125669
v -0.287569 0.743968 1.121386
v -0.325645 0.743968 1.121386
v -0.325645 0.743968 0.348747
v -0.287568 0.294923 0.348747
v -0.325645 0.743968 0.841304
v -0.287568 0.294923 0.841304
v -0.325645 0.743968 0.125669
v 1.269192 0.904910 0.348747
v 1.269192 0.904910 0.841304
v -0.325645 0.904910 0.348747
v -0.325645 0.904910 0.841304
v -0.969601 0.747034 -0.041405
v -0.847005 0.747034 -0.029331
v -0.729121 0.747034 0.006429
v -0.620479 0.747034 0.064500
v -0.525253 0.747034 0.142650
v -0.447103 0.747034 0.237876
v -0.389032 0.747034 0.346518
v -0.353273 0.747034 0.464402
v -0.341198 0.747034 0.586998
v -0.353273 0.747034 0.709593
v -0.389032 0.747034 0.827477
v -0.447103 0.747034 0.936119
v -0.525253 0.747034 1.031345
v -0.620479 0.747034 1.109495
v -0.729122 0.747034 1.167566
v -0.847006 0.747034 1.203326
v -0.969601 0.747034 1.215400
v -1.092196 0.747034 1.203326
v -1.210080 0.747034 1.167566
v -1.318723 0.747034 1.109495
v -1.413949 0.747034 1.031345
v -1.492099 0.747034 0.936119
v -1.550169 0.747034 0.827476
v -1.585929 0.747034 0.709592
v -1.598003 0.747034 0.586997
v -1.585929 0.747034 0.464401
v -1.550169 0.747034 0.346518
v -1.492098 0.747034 0.237875
v -1.413948 0.747034 0.142649
v -1.318722 0.747034 0.064499
v -1.210079 0.747034 0.006429
v -1.092195 0.747034 -0.029331
v -0.969601 0.287556 -0.041405
v -0.847005 0.287556 -0.029331
v -0.729121 0.287556 0.006429
v -0.620479 0.287556 0.064500
v -0.525253 0.287556 0.142650
v -0.447103 0.287556 0.237876
v -0.389032 0.287556 0.346518
v -0.353273 0.287556 0.464402
v -0.341198 0.287556 0.586998
v -0.353273 0.287556 0.709593
v -0.389032 0.287556 0.827477
v -0.447103 0.287556 0.936119
v -0.525253 0.287556 1.031345
v -0.620479 0.287556 1.109495
v -0.729122 0.287556 1.167566
v -0.847006 0.287556 1.203326
v -0.969601 0.287556 1.215400
v -1.092196 0.287556 1.203326
v -1.210080 0.287556 1.167566
v -1.318723 0.287556 1.109495
v -1.413949 0.287556 1.031345
v -1.492099 0.287556 0.936119
v -1.550169 0.287556 0.827476
v -1.585929 0.287556 0.709592
v -1.598003 0.287556 0.586997
v -1.585929 0.287556 0.464401
v -1.550169 0.287556 0.346518
v -1.492098 0.287556 0.237875
v -1.413948 0.287556 0.142649
v -1.318722 0.287556 0.064499
v -1.210079 0.287556 0.006429
v -1.092195 0.287556 -0.029331
v -0.530812 0.739914 1.121386
v -0.530812 0.739914 0.125668
v -0.969601 0.732547 -0.041405
v -0.847005 0.732547 -0.029331
v -0.729121 0.732547 0.006429
v -0.620479 0.732547 0.064500
v -0.525253 0.732547 0.142650
v -0.447103 0.732547 0.237876
v -0.389032 0.732547 0.346518
v -0.353273 0.732547 0.464402
v -0.341198 0.732547 0.586998
v -0.353273 0.732547 0.709593
v -0.389032 0.732547 0.827477
v -0.447103 0.732547 0.936119
v -0.525253 0.732547 1.031345
v -0.620479 0.732547 1.109495
v -0.729122 0.732547 1.167566
v -0.847006 0.732547 1.203326
v -0.969601 0.732547 1.215400
v -1.092196 0.732547 1.203326
v -1.210080 0.732547 1.167566
v -1.318723 0.732547 1.109495
v -1.413949 0.732547 1.031345
v -1.492099 0.732547 0.936119
v -1.550169 0.732547 0.827476
v -1.585929 0.732547 0.709592
v -1.598003 0.732547 0.586997
v -1.585929 0.732547 0.464401
v -1.550169 0.732547 0.346518
v -1.492098 0.732547 0.237875
v -1.413948 0.732547 0.142649
v -1.318722 0.732547 0.064499
v -1.210079 0.732547 0.006429
v -1.092195 0.732547 -0.029331
v -0.447103 0.290460 0.237876
v -0.389032 0.290460 0.346518
v -0.353273 0.290460 0.464402
v -0.341198 0.290460 0.586998
v -0.353273 0.290460 0.709593
v -0.389032 0.290460 0.827477
v -0.447103 0.290460 0.936119
v -0.525253 0.290460 1.031345
v -0.620479 0.290460 1.109495
vn 0.0000 -1.0000 -0.0000
vn 0.0000 0.0000 1.0000
vn 1.0000 0.0000 0.0000
vn -1.0000 -0.0000 -0.0000
vn 0.0000 0.0000 -1.0000
vn 0.0000 1.0000 0.0000
vn 0.0980 0.0000 -0.9952
vn 0.2903 0.0000 -0.9569
vn 0.4714 0.0000 -0.8819
vn 0.6344 0.0000 -0.7730
vn 0.7730 0.0000 -0.6344
vn 0.8819 0.0000 -0.4714
vn 0.9569 0.0000 -0.2903
vn 0.9952 0.0000 -0.0980
vn 0.9952 0.0000 0.0980
vn 0.9569 0.0000 0.2903
vn 0.8819 0.0000 0.4714
vn 0.7730 0.0000 0.6344
vn 0.6344 0.0000 0.7730
vn 0.4714 0.0000 0.8819
vn 0.2903 0.0000 0.9569
vn 0.0980 0.0000 0.9952
vn -0.0980 0.0000 0.9952
vn -0.2903 0.0000 0.9569
vn -0.4714 0.0000 0.8819
vn -0.6344 0.0000 0.7730
vn -0.7730 0.0000 0.6344
vn -0.8819 0.0000 0.4714
vn -0.9569 0.0000 0.2903
vn -0.9952 0.0000 0.0980
vn -0.9952 0.0000 -0.0980
vn -0.9569 0.0000 -0.2903
vn -0.8819 0.0000 -0.4714
vn -0.7730 0.0000 -0.6344
vn -0.6344 0.0000 -0.7730
vn -0.4714 0.0000 -0.8819
vn -0.2903 0.0000 -0.9569
vn -0.0980 0.0000 -0.9952
vn -0.0023 1.0000 -0.0004
usemtl Material
s off
f 33//1 26//1 3//1 20//1
f 19//2 7//2 12//2 18//2
f 16//3 17//3 6//3 2//3
f 26//2 28//2 7//2 3//2
f 9//4 14//4 8//4 4//4
f 27//5 25//5 4//5 8//5
f 1//3 5//3 13//3 10//3
f 27//6 8//6 11//6 34//6
f 28//6 6//6 22//6 29//6
f 8//2 14//2 15//2 11//2
f 20//4 19//4 14//4 9//4
f 32//6 30//6 15//6 18//6
f 30//6 34//6 11//6 15//6
f 25//1 31//1 9//1 4//1
f 29//6 32//6 18//6 12//6
f 3//4 7//4 19//4 20//4
f 10//3 13//3 17//3 16//3
f 14//2 19//2 18//2 15//2
f 31//1 33//1 20//1 9//1
f 6//6 17//6 24//6 22//6
f 13//6 5//6 21//6 23//6
f 17//6 13//6 23//6 24//6
f 10//1 16//1 33//1 31//1
f 22//6 24//6 32//6 29//6
f 1//1 10//1 31//1 25//1
f 23//6 21//6 34//6 30//6
f 32//2 24//2 36//2 38//2
f 7//2 28//2 29//2 12//2
f 5//1 27//1 34//1 21//1
f 5//5 1//5 25//5 27//5
f 2//2 6//2 28//2 26//2
f 16//1 2//1 26//1 33//1
f 36//6 35//6 37//6 38//6
f 23//5 30//5 37//5 35//5
f 30//4 32//4 38//4 37//4
f 24//3 23//3 35//3 36//3
f 71//7 39//7 40//7 72//7
f 72//8 40//8 41//8 73//8
f 73//9 41//9 42//9 74//9
f 74//10 42//10 43//10 75//10
f 75//11 43//11 44//11 76//11
f 76//12 44//12 45//12 77//12
f 77//13 45//13 46//13 78//13
f 78//14 46//14 47//14 79//14
f 79//15 47//15 48//15 80//15
f 80//16 48//16 49//16 81//16
f 81//17 49//17 50//17 82//17
f 82//18 50//18 51//18 83//18
f 83//19 51//19 52//19 84//19
f 84//20 52//20 53//20 85//20
f 85//21 53//21 54//21 86//21
f 86//22 54//22 55//22 87//22
f 87//23 55//23 56//23 88//23
f 88//24 56//24 57//24 89//24
f 89//25 57//25 58//25 90//25
f 90//26 58//26 59//26 91//26
f 91//27 59//27 60//27 92//27
f 92//28 60//28 61//28 93//28
f 93//29 61//29 62//29 94//29
f 94//30 62//30 63//30 95//30
f 95//31 63//31 64//31 96//31
f 96//32 64//32 65//32 97//32
f 97//33 65//33 66//33 98//33
f 98//34 66//34 67//34 99//34
f 99//35 67//35 68//35 100//35
f 100//36 68//36 69//36 101//36
f 40//6 39//6 70//6 69//6 68//6 67//6 66//6 65//6 64//6 63//6 62//6 61//6 60//6 59//6 58//6 57//6 56//6 55//6 54//6 53//6 52//6 51//6 50//6 49//6 48//6 47//6 46//6 45//6 44//6 43//6 42//6 41//6
f 101//37 69//37 70//37 102//37
f 102//38 70//38 39//38 71//38
f 90//10 91//10 125//10 124//10
f 77//29 78//29 112//29 111//29
f 91//11 92//11 126//11 125//11
f 78//30 79//30 113//30 112//30
f 92//12 93//12 127//12 126//12
f 79//31 80//31 114//31 113//31
f 93//13 94//13 128//13 127//13
f 80//32 81//32 115//32 114//32
f 94//14 95//14 129//14 128//14
f 81//33 82//33 116//33 115//33
f 95//15 96//15 130//15 129//15
f 82//34 83//34 117//34 116//34
f 96//16 97//16 131//16 130//16
f 83//35 84//35 118//35 117//35
f 97//17 98//17 132//17 131//17
f 84//36 85//36 119//36 118//36
f 71//23 72//23 106//23 105//23
f 98//18 99//18 133//18 132//18
f 85//37 86//37 120//37 119//37
f 72//24 73//24 107//24 106//24
f 99//19 100//19 134//19 133//19
f 86//38 87//38 121//38 120//38
f 73//25 74//25 108//25 107//25
f 100//20 101//20 135//20 134//20
f 87//7 88//7 122//7 121//7
f 74//26 75//26 109//26 108//26
f 101//21 102//21 136//21 135//21
f 88//8 89//8 123//8 122//8
f 75//27 76//27 110//27 109//27
f 102//22 71//22 105//22 136//22
f 89//9 90//9 124//9 123//9
f 76//28 77//28 111//28 110//28
f 77//12 76//12 137//12 138//12
f 78//13 77//13 138//13 139//13
f 79//14 78//14 139//14 140//14
f 80//15 79//15 140//15 141//15
f 81//16 80//16 141//16 142//16
f 73//39 72//39 71//39 102//39 101//39 100//39 99//39 98//39 97//39 96//39 95//39 94//39 93//39 92//39 91//39 90//39 89//39 88//39 87//39 86//39 85//39 84//39 145//39 137//39 76//39 75//39 74//39
f 82//17 81//17 142//17 143//17
f 83//18 82//18 143//18 144//18
f 84//19 83//19 144//19 145//19
f 136//1 105//1 106//1 107//1 108//1 109//1 110//1 111//1 112//1 113//1 114//1 115//1 116//1 117//1 118//1 119//1 120//1 121//1 122//1 123//1 124//1 125//1 126//1 127//1 128//1 129//1 130//1 131//1 132//1 133//1 134//1 135//1
l 3 103
l 4 104
